<svg width="46" height="35" viewBox="0 0 46 35" fill="none" xmlns="http://www.w3.org/2000/svg">
<path d="M42.5987 0H3.40133C1.52346 0 0 1.12387 0 2.51171V32.4923C0 33.8801 1.52346 35 3.40133 35H42.5987C44.4765 35 46 33.8801 46 32.4923V2.50771C45.9947 1.12387 44.4713 0 42.5987 0ZM13.9439 29.2927H6.99839V13.4945H13.9439V29.2927V29.2927ZM10.4738 11.3387H10.4262C8.09338 11.3387 6.59108 10.1268 6.59108 8.60702C6.59108 7.05519 8.14627 5.87533 10.5161 5.87533C12.8965 5.87533 14.3565 7.05519 14.3988 8.60702C14.3988 10.1268 12.8965 11.3387 10.4738 11.3387ZM38.9963 29.2927H32.0455V20.8416C32.0455 18.7179 31.0458 17.27 28.5331 17.27C26.6076 17.27 25.465 18.2459 24.9625 19.1898C24.7827 19.5298 24.7403 20.0017 24.7403 20.4697V29.3007H17.7896C17.7896 29.3007 17.8795 14.9823 17.7896 13.4985H24.7403V15.7342C25.6608 14.6583 27.3165 13.1265 30.9982 13.1265C35.5685 13.1265 38.9963 15.3862 38.9963 20.2417V29.2927V29.2927Z" fill="white"/>
</svg>
