<svg width="52" height="60" viewBox="0 0 52 60" fill="none" xmlns="http://www.w3.org/2000/svg">
<path fill-rule="evenodd" clip-rule="evenodd" d="M24.2453 1.18541C25.3887 0.833991 26.6113 0.83399 27.7546 1.18541L36.7118 3.93841C41.3848 5.37464 45.8226 7.48622 49.8847 10.2062C53.0442 12.3218 51.5466 17.25 47.7443 17.25H4.25572C0.45337 17.25 -1.04422 12.3218 2.11523 10.2062C6.17733 7.48622 10.6152 5.37464 15.2881 3.93842L24.2453 1.18541ZM26.4326 5.48682C26.1507 5.40018 25.8493 5.40018 25.5674 5.48683L16.6102 8.23983C13.0678 9.3286 9.67373 10.8437 6.50207 12.75H45.4979C42.3262 10.8437 38.9322 9.32859 35.3898 8.23983L26.4326 5.48682Z" fill="#DAB232"/>
<path d="M2.75 57C2.75 55.7574 3.75736 54.75 5 54.75H47C48.2426 54.75 49.25 55.7574 49.25 57C49.25 58.2426 48.2426 59.25 47 59.25H5C3.75736 59.25 2.75 58.2426 2.75 57Z" fill="#DAB232"/>
<path d="M8.75 45C8.75 46.2426 9.75736 47.25 11 47.25C12.2426 47.25 13.25 46.2426 13.25 45L13.25 27C13.25 25.7574 12.2426 24.75 11 24.75C9.75736 24.75 8.75 25.7574 8.75 27L8.75 45Z" fill="#DAB232"/>
<path d="M26 47.25C24.7574 47.25 23.75 46.2426 23.75 45L23.75 27C23.75 25.7574 24.7574 24.75 26 24.75C27.2426 24.75 28.25 25.7574 28.25 27V45C28.25 46.2426 27.2426 47.25 26 47.25Z" fill="#DAB232"/>
<path d="M38.75 45C38.75 46.2426 39.7574 47.25 41 47.25C42.2426 47.25 43.25 46.2426 43.25 45V27C43.25 25.7574 42.2426 24.75 41 24.75C39.7574 24.75 38.75 25.7574 38.75 27V45Z" fill="#DAB232"/>
</svg>
