<svg width="113" height="68" viewBox="0 0 113 68" fill="none" xmlns="http://www.w3.org/2000/svg">
<path d="M56.5 14.8438C51.0634 14.8438 46.6562 19.2509 46.6562 24.6875C46.6562 30.1241 51.0634 34.5313 56.5 34.5313C61.9366 34.5313 66.3438 30.1241 66.3438 24.6875C66.3438 19.2509 61.9366 14.8438 56.5 14.8438Z" fill="#DAB232"/>
<path d="M46 39.7813C40.5634 39.7813 36.1562 44.1885 36.1562 49.625V52.7442C36.1562 54.7215 37.5892 56.4073 39.5406 56.7259C50.7725 58.5597 62.2275 58.5597 73.4594 56.7259C75.4108 56.4073 76.8438 54.7215 76.8438 52.7442V49.625C76.8438 44.1885 72.4366 39.7813 67 39.7813H66.1052C65.6209 39.7813 65.1397 39.8578 64.6793 40.0082L62.4073 40.75C58.5688 42.0034 54.4312 42.0034 50.5927 40.75L48.3207 40.0082C47.8603 39.8578 47.3791 39.7813 46.8948 39.7813H46Z" fill="#DAB232"/>
<path d="M81.5 9.84375C76.0634 9.84375 71.6562 14.2509 71.6562 19.6875C71.6562 25.1241 76.0634 29.5313 81.5 29.5313C86.9366 29.5313 91.3438 25.1241 91.3438 19.6875C91.3438 14.2509 86.9366 9.84375 81.5 9.84375Z" fill="#DAB232"/>
<path d="M71 34.7813C65.5634 34.7813 61.1562 39.1885 61.1562 44.625V47.7442C61.1562 49.7215 62.5892 51.4073 64.5406 51.7259C75.7725 53.5597 87.2275 53.5597 98.4594 51.7259C100.411 51.4073 101.844 49.7215 101.844 47.7442V44.625C101.844 39.1885 97.4366 34.7813 92 34.7813H91.1052C90.6209 34.7813 90.1397 34.8578 89.6793 35.0082L87.4073 35.75C83.5688 37.0034 79.4312 37.0034 75.5927 35.75L73.3207 35.0082C72.8603 34.8578 72.3791 34.7813 71.8948 34.7813H71Z" fill="#DAB232"/>
<path d="M31.5 9.84375C26.0634 9.84375 21.6562 14.2509 21.6562 19.6875C21.6562 25.1241 26.0634 29.5313 31.5 29.5313C36.9366 29.5313 41.3438 25.1241 41.3438 19.6875C41.3438 14.2509 36.9366 9.84375 31.5 9.84375Z" fill="#DAB232"/>
<path d="M21 34.7813C15.5634 34.7813 11.1562 39.1885 11.1562 44.625V47.7442C11.1562 49.7215 12.5892 51.4073 14.5406 51.7259C25.7725 53.5597 37.2275 53.5597 48.4594 51.7259C50.4108 51.4073 51.8438 49.7215 51.8438 47.7442V44.625C51.8438 39.1885 47.4366 34.7813 42 34.7813H41.1052C40.6209 34.7813 40.1397 34.8578 39.6793 35.0082L37.4073 35.75C33.5688 37.0034 29.4312 37.0034 25.5927 35.75L23.3207 35.0082C22.8603 34.8578 22.3791 34.7813 21.8948 34.7813H21Z" fill="#DAB232"/>
</svg>
