<svg width="183" height="172" viewBox="0 0 183 172" fill="none" xmlns="http://www.w3.org/2000/svg">
<path d="M152.5 86.5C152.5 117.257 125.591 142.5 92 142.5C58.4091 142.5 31.5 117.257 31.5 86.5C31.5 55.7433 58.4091 30.5 92 30.5C125.591 30.5 152.5 55.7433 152.5 86.5Z" stroke="black" stroke-width="5"/>
<path d="M90.9393 102.061C91.5251 102.646 92.4749 102.646 93.0607 102.061L102.607 92.5147C103.192 91.9289 103.192 90.9792 102.607 90.3934C102.021 89.8076 101.071 89.8076 100.485 90.3934L92 98.8787L83.5147 90.3934C82.9289 89.8076 81.9792 89.8076 81.3934 90.3934C80.8076 90.9792 80.8076 91.9289 81.3934 92.5147L90.9393 102.061ZM90.5 72V101H93.5V72H90.5Z" fill="black"/>
<path d="M87.9621 17V4.22L90.4461 4.22V14.822H96.9621V17L87.9621 17Z" fill="black"/>
<path d="M110.079 19.425C109.087 19.1845 108.289 18.7623 107.682 18.1584C107.087 17.5574 106.687 16.8555 106.483 16.0529C106.281 15.2388 106.294 14.4148 106.52 13.581C106.753 12.7241 107.16 11.9833 107.739 11.3587C108.334 10.7254 109.051 10.2822 109.891 10.0291C110.733 9.76452 111.656 9.75389 112.659 9.99723C113.662 10.2406 114.459 10.6686 115.051 11.2812C115.646 11.8823 116.032 12.5871 116.211 13.3956C116.403 14.1954 116.388 15.0063 116.165 15.8285C116.083 16.1296 115.995 16.3859 115.9 16.5975L108.815 14.8785C108.682 15.5991 108.793 16.2186 109.15 16.7371C109.518 17.2584 110.011 17.594 110.629 17.744C111.095 17.8572 111.562 17.8533 112.03 17.7323C112.513 17.6025 112.881 17.3708 113.133 17.037L114.993 18.0809C114.466 18.6937 113.768 19.1353 112.899 19.4059C112.034 19.6648 111.093 19.6712 110.079 19.425ZM109.164 13.3893L113.957 14.5522C114.073 13.852 113.96 13.2383 113.618 12.7111C113.292 12.1751 112.808 11.8293 112.166 11.6737C111.536 11.5209 110.936 11.6035 110.365 11.9216C109.808 12.231 109.408 12.7202 109.164 13.3893Z" fill="black"/>
<path d="M124.33 20.9862C124.638 20.4572 125.056 20.0731 125.583 19.8338C126.127 19.5897 126.734 19.4998 127.404 19.5642C128.074 19.6285 128.76 19.8432 129.463 20.2083C129.814 20.3909 130.153 20.6073 130.479 20.8577C130.811 21.0976 131.08 21.3386 131.285 21.5807L131.539 21.145C131.841 20.6264 131.913 20.1441 131.757 19.698C131.611 19.2575 131.229 18.8769 130.611 18.556C130.153 18.3181 129.672 18.1691 129.166 18.1089C128.66 18.0487 128.091 18.0501 127.458 18.113L127.567 16.387C128.326 16.3221 129.045 16.3508 129.722 16.4732C130.41 16.6011 131.074 16.831 131.713 17.163C132.906 17.7826 133.663 18.5543 133.985 19.4782C134.318 20.4076 134.171 21.4116 133.544 22.4904L132.032 25.0887C131.899 25.3169 131.843 25.497 131.863 25.6291C131.889 25.7508 131.992 25.8718 132.172 25.9921L131.185 27.688C130.97 27.6299 130.779 27.5646 130.613 27.492C130.452 27.4353 130.318 27.3793 130.212 27.3239C129.786 27.1027 129.515 26.8406 129.4 26.5377C129.285 26.2348 129.285 25.9375 129.399 25.6456L129.596 25.2007C128.951 25.4738 128.285 25.5938 127.597 25.5606C126.926 25.5225 126.308 25.3569 125.744 25.0637C125.18 24.7705 124.742 24.4016 124.433 23.9569C124.129 23.5019 123.961 23.0161 123.928 22.4996C123.913 21.9782 124.047 21.4737 124.33 20.9862ZM129.293 24.1115C129.704 24.0009 129.976 23.8315 130.109 23.6033L130.588 22.7787C130.161 22.2732 129.666 21.8738 129.101 21.5806C128.537 21.2874 128.01 21.1688 127.52 21.2248C127.035 21.2705 126.682 21.4852 126.458 21.8689C126.277 22.1801 126.242 22.5266 126.353 22.9083C126.464 23.29 126.759 23.6053 127.238 23.8543C127.557 24.0202 127.899 24.1236 128.264 24.1644C128.639 24.2108 128.982 24.1931 129.293 24.1115Z" fill="black"/>
<path d="M149.652 32.6465C149.104 32.1607 148.514 31.8287 147.88 31.6507C147.255 31.4642 146.662 31.4745 146.101 31.6818L142.079 35.7292L140.275 34.1283L146.923 27.4378L148.579 28.9074L147.158 30.3374C147.857 30.0928 148.531 30.0098 149.179 30.0884C149.836 30.175 150.393 30.3967 150.849 30.7535C151.038 30.9208 151.154 31.0325 151.2 31.0888L149.652 32.6465Z" fill="black"/>
<path d="M155.513 53.2784L154.168 51.276L158.706 48.5543C159.355 48.1654 159.754 47.7719 159.906 47.3738C160.057 46.9756 160.002 46.5823 159.741 46.1938C159.561 45.9248 159.305 45.6941 158.973 45.5015C158.648 45.319 158.284 45.1952 157.879 45.1304C157.485 45.0593 157.09 45.0727 156.694 45.1706L151.97 48.0035L150.625 46.0011L158.714 41.1501L159.929 42.9582L158.431 43.8562C159.13 43.8427 159.807 44.0234 160.463 44.3986C161.129 44.7675 161.693 45.2956 162.155 45.983C162.483 46.4712 162.658 46.9252 162.68 47.3451C162.712 47.7589 162.631 48.143 162.436 48.4975C162.251 48.8458 161.989 49.1641 161.648 49.4522C161.314 49.7503 160.951 50.0166 160.56 50.2511L155.513 53.2784Z" fill="black"/>
<path d="M164.477 85.6264L172.851 85.1286L166.398 82.2305L166.306 80.8476L172.323 77.2081L163.95 77.706L163.785 75.2275L176.542 74.469L176.719 77.1271L169.711 81.3303L177.224 84.7063L177.4 87.3465L164.642 88.105L164.477 85.6264Z" fill="black"/>
<path d="M162.76 99.3767C162.964 98.3651 163.358 97.534 163.942 96.8835C164.536 96.2469 165.238 95.8005 166.049 95.5443C166.859 95.2881 167.69 95.2367 168.54 95.39C169.402 95.5454 170.16 95.8832 170.814 96.4033C171.465 96.9353 171.937 97.5994 172.229 98.3957C172.531 99.2059 172.581 100.111 172.379 101.111C172.177 102.111 171.779 102.929 171.186 103.565C170.601 104.216 169.904 104.669 169.094 104.925C168.283 105.182 167.447 105.232 166.585 105.077C165.734 104.923 164.982 104.587 164.328 104.066C163.674 103.546 163.197 102.881 162.895 102.071C162.603 101.275 162.558 100.377 162.76 99.3767ZM168.048 97.8249C167.505 97.7269 167 97.7455 166.532 97.8806C166.076 98.0178 165.693 98.2475 165.383 98.5695C165.073 98.8916 164.872 99.282 164.779 99.7407C164.689 100.188 164.725 100.615 164.888 101.022C165.062 101.431 165.335 101.779 165.705 102.065C166.085 102.366 166.547 102.565 167.09 102.663C167.622 102.758 168.117 102.732 168.575 102.583C169.043 102.448 169.432 102.219 169.742 101.897C170.063 101.577 170.269 101.194 170.359 100.747C170.452 100.288 170.411 99.8539 170.237 99.4445C170.074 99.0373 169.802 98.6895 169.419 98.4011C169.049 98.1149 168.592 97.9228 168.048 97.8249Z" fill="black"/>
<path d="M162.297 121.634C162.623 120.979 162.783 120.335 162.777 119.702C162.782 119.075 162.599 118.541 162.229 118.101L157.015 115.782L158.09 113.623L166.708 117.455L165.721 119.437L163.879 118.618C164.327 119.171 164.606 119.755 164.716 120.368C164.82 120.991 164.761 121.569 164.537 122.099C164.425 122.324 164.347 122.467 164.304 122.526L162.297 121.634Z" fill="black"/>
<path d="M146.762 130.07C147.434 129.303 148.19 128.776 149.029 128.489C149.861 128.212 150.7 128.145 151.545 128.289C152.4 128.44 153.168 128.782 153.849 129.314C154.548 129.861 155.061 130.513 155.386 131.269C155.713 132.042 155.806 132.844 155.666 133.678C155.535 134.518 155.13 135.327 154.45 136.103C153.77 136.88 153.01 137.403 152.168 137.673C151.337 137.95 150.501 138.004 149.662 137.835C148.824 137.682 148.07 137.343 147.399 136.819C147.153 136.626 146.952 136.447 146.796 136.279L151.598 130.794C150.982 130.388 150.35 130.237 149.703 130.339C149.048 130.451 148.511 130.746 148.092 131.224C147.776 131.585 147.57 131.994 147.473 132.451C147.377 132.924 147.429 133.337 147.629 133.691L145.812 134.894C145.474 134.188 145.373 133.403 145.51 132.536C145.657 131.678 146.074 130.856 146.762 130.07ZM152.839 131.696L149.59 135.407C150.196 135.788 150.822 135.936 151.471 135.85C152.121 135.781 152.664 135.498 153.098 135.001C153.525 134.513 153.718 133.957 153.676 133.331C153.636 132.722 153.357 132.177 152.839 131.696Z" fill="black"/>
<path d="M122.323 152.882L123.164 154.891L118.056 156.802L117.214 154.793L122.323 152.882Z" fill="black"/>
<path d="M85.5747 154.874L83.8814 167.542L81.4149 167.247L82.8197 156.739L76.3496 155.966L76.6382 153.807L85.5747 154.874Z" fill="black"/>
<path d="M63.9236 149.902C64.8789 150.259 65.6192 150.773 66.1445 151.443C66.6585 152.109 66.9651 152.851 67.0644 153.669C67.159 154.499 67.0394 155.312 66.7055 156.108C66.3624 156.928 65.8616 157.611 65.2032 158.158C64.529 158.712 63.7576 159.064 62.8892 159.213C62.0162 159.373 61.0964 159.272 60.1298 158.91C59.1633 158.549 58.4253 158.029 57.9159 157.352C57.4019 156.686 57.1089 155.943 57.0367 155.122C56.9487 154.308 57.0693 153.508 57.3985 152.722C57.5191 152.434 57.6403 152.192 57.7621 151.994L64.5898 154.549C64.8165 153.853 64.7862 153.227 64.4989 152.671C64.2004 152.111 63.7533 151.72 63.1577 151.497C62.7081 151.329 62.2426 151.276 61.7611 151.339C61.2638 151.409 60.8678 151.594 60.5734 151.894L58.8572 150.637C59.4614 150.095 60.2135 149.743 61.1137 149.58C62.0092 149.429 62.9458 149.536 63.9236 149.902ZM64.0492 155.979L59.4299 154.25C59.2238 154.929 59.2564 155.549 59.5278 156.112C59.7833 156.681 60.2201 157.081 60.8383 157.312C61.4452 157.539 62.0536 157.53 62.6635 157.285C63.2575 157.046 63.7194 156.611 64.0492 155.979Z" fill="black"/>
<path d="M49.9881 146.687C49.615 147.172 49.1511 147.5 48.5961 147.671C48.024 147.845 47.4089 147.859 46.7507 147.713C46.0926 147.566 45.4371 147.268 44.7842 146.82C44.4577 146.596 44.1482 146.34 43.8558 146.052C43.556 145.773 43.319 145.502 43.1448 145.237L42.8376 145.636C42.4719 146.112 42.3387 146.58 42.438 147.041C42.5275 147.495 42.859 147.919 43.4328 148.312C43.8582 148.605 44.3187 148.812 44.8142 148.934C45.3097 149.056 45.8762 149.125 46.5137 149.141L46.1863 150.835C45.4232 150.806 44.7124 150.688 44.0539 150.483C43.3854 150.271 42.7544 149.962 42.1609 149.554C41.0529 148.793 40.397 147.936 40.1933 146.982C39.9796 146.021 40.2531 145.046 41.0138 144.057L42.846 141.674C43.0069 141.465 43.0856 141.293 43.0822 141.16C43.0715 141.037 42.9844 140.904 42.8209 140.763L44.0168 139.207C44.2241 139.292 44.4056 139.38 44.5613 139.472C44.7145 139.548 44.8405 139.62 44.9394 139.688C45.3351 139.96 45.571 140.253 45.6471 140.567C45.7232 140.88 45.686 141.175 45.5354 141.449L45.2837 141.865C45.959 141.675 46.6368 141.639 47.3168 141.757C47.9797 141.877 48.5733 142.118 49.0976 142.478C49.6219 142.838 50.0101 143.257 50.2621 143.735C50.5068 144.223 50.6125 144.724 50.5793 145.239C50.5289 145.757 50.3318 146.24 49.9881 146.687ZM45.4467 142.98C45.0239 143.038 44.732 143.172 44.5711 143.382L43.9896 144.138C44.3504 144.691 44.793 145.147 45.3173 145.507C45.8416 145.867 46.3511 146.05 46.8458 146.055C47.3332 146.07 47.7122 145.902 47.9828 145.55C48.2022 145.264 48.281 144.926 48.2191 144.535C48.1572 144.143 47.9037 143.795 47.4585 143.489C47.1617 143.285 46.8346 143.141 46.4772 143.055C46.1098 142.963 45.7664 142.938 45.4467 142.98Z" fill="black"/>
<path d="M27.1643 131.437C27.6465 131.988 28.1907 132.391 28.797 132.647C29.3939 132.911 29.9833 132.975 30.5652 132.839L35.0605 129.325L36.6493 131.14L29.2185 136.949L27.7602 135.283L29.3485 134.041C28.6245 134.197 27.9461 134.195 27.3131 134.036C26.6723 133.867 26.148 133.578 25.7402 133.166C25.5742 132.977 25.4722 132.851 25.4343 132.79L27.1643 131.437Z" fill="black"/>
<path d="M23.2593 110.883L24.3345 113.042L19.499 115.193C18.8082 115.5 18.3627 115.842 18.1624 116.22C17.9621 116.598 17.9662 116.996 18.1748 117.415C18.3193 117.705 18.5431 117.966 18.8464 118.199C19.1443 118.42 19.4892 118.589 19.881 118.703C20.2618 118.822 20.6544 118.858 21.0588 118.809L26.0916 116.571L27.1667 118.73L18.5484 122.563L17.5776 120.613L19.173 119.903C18.4806 119.831 17.8338 119.567 17.2326 119.113C16.6204 118.664 16.1298 118.068 15.7607 117.327C15.4986 116.801 15.3833 116.327 15.4149 115.907C15.4355 115.491 15.5648 115.118 15.8028 114.789C16.0298 114.465 16.3301 114.181 16.7037 113.936C17.072 113.68 17.4645 113.46 17.8811 113.275L23.2593 110.883Z" fill="black"/>
<path d="M18.7633 77.7102L10.3901 77.2124L16.4075 80.8518L16.3154 82.2348L9.86282 85.1328L18.236 85.6306L18.071 88.1092L5.31355 87.3507L5.49052 84.6926L13.0008 81.3525L5.99511 77.1133L6.17088 74.4732L18.9284 75.2317L18.7633 77.7102Z" fill="black"/>
<path d="M22.3475 64.2891C22.0119 65.265 21.511 66.0396 20.8446 66.6128C20.1707 67.1712 19.4137 67.5285 18.5738 67.6846C17.7338 67.8407 16.9008 67.7919 16.0749 67.5383C15.2375 67.2812 14.5275 66.8562 13.945 66.2633C13.3665 65.6591 12.984 64.9457 12.7975 64.1232C12.6035 63.2857 12.6724 62.3847 13.004 61.4202C13.3357 60.4556 13.8384 59.6941 14.5124 59.1357C15.1787 58.5625 15.9319 58.1978 16.7719 58.0417C17.6119 57.8856 18.4506 57.9361 19.288 58.1932C20.1139 58.4469 20.8181 58.8701 21.4006 59.463C21.9831 60.0558 22.3713 60.771 22.5653 61.6084C22.7517 62.4309 22.6791 63.3245 22.3475 64.2891ZM16.8825 65.1893C17.4102 65.3513 17.9157 65.3936 18.3989 65.3161C18.8706 65.2351 19.2817 65.054 19.632 64.7726C19.9824 64.4913 20.2337 64.1293 20.3859 63.6868C20.5341 63.2555 20.554 62.8288 20.4456 62.4066C20.3256 61.9808 20.1 61.6042 19.7687 61.2766C19.4299 60.9342 18.9966 60.682 18.4689 60.52C17.9527 60.3615 17.4568 60.3284 16.9812 60.4207C16.498 60.4982 16.0812 60.6776 15.7308 60.9589C15.3689 61.2367 15.1139 61.5913 14.9656 62.0225C14.8135 62.465 14.7973 62.8992 14.9173 63.325C15.0258 63.7472 15.2514 64.1238 15.5941 64.4549C15.9254 64.7825 16.3548 65.0272 16.8825 65.1893Z" fill="black"/>
<path d="M25.7437 42.2929C25.3356 42.9006 25.0945 43.5176 25.0204 44.1439C24.9359 44.764 25.0499 45.3145 25.3622 45.7952L30.2557 48.7299L28.911 50.7323L20.8221 45.8813L22.0564 44.0433L23.7853 45.0801C23.4102 44.4779 23.207 43.8669 23.1756 43.2472C23.151 42.6175 23.2838 42.0544 23.574 41.5577C23.7145 41.3485 23.81 41.2171 23.8604 41.1635L25.7437 42.2929Z" fill="black"/>
<path d="M41.6182 35.0968C40.8553 35.7738 40.0391 36.2018 39.1697 36.3807C38.3092 36.5516 37.4684 36.5128 36.6473 36.2644C35.8177 36.0075 35.0984 35.5726 34.4894 34.9597C33.8634 34.3298 33.4363 33.6196 33.2081 32.829C32.9804 32.0219 32.9883 31.214 33.2318 30.4053C33.4669 29.588 33.9703 28.8368 34.7422 28.1518C35.5141 27.4668 36.3345 27.0432 37.2034 26.8807C38.0639 26.7098 38.9 26.7608 39.7116 27.0337C40.5238 27.29 41.2301 27.7204 41.8307 28.3248C42.0506 28.5461 42.2274 28.7495 42.3612 28.9352L36.9086 33.7739C37.4695 34.2533 38.0774 34.4827 38.7325 34.462C39.3965 34.4333 39.9664 34.208 40.4421 33.7858C40.8011 33.4672 41.0574 33.0877 41.2108 32.6472C41.3647 32.1902 41.3647 31.7737 41.2107 31.3978L43.165 30.4324C43.4122 31.1741 43.4135 31.9658 43.169 32.8076C42.916 33.6408 42.3991 34.4039 41.6182 35.0968ZM35.7898 32.7245L39.4787 29.4509C38.9258 28.9964 38.3221 28.7713 37.6675 28.7755C37.0135 28.7633 36.4397 28.9762 35.946 29.4142C35.4613 29.8443 35.2005 30.3722 35.1634 30.9978C35.1268 31.6069 35.3356 32.1824 35.7898 32.7245Z" fill="black"/>
<path d="M69.5311 16.0307L68.96 13.9289L74.2603 12.6429L74.8313 14.7447L69.5311 16.0307Z" fill="black"/>
</svg>
