<svg width="81" height="81" viewBox="0 0 81 81" fill="none" xmlns="http://www.w3.org/2000/svg">
<path fill-rule="evenodd" clip-rule="evenodd" d="M36.2404 56.117C33.6294 56.117 31.4515 54.1216 31.2235 51.5207C30.7468 46.0826 30.6261 40.6202 30.8619 35.1686C30.5773 35.1495 30.2928 35.1296 30.0082 35.1089L24.981 34.7425C21.7678 34.5082 19.9716 30.9254 21.7063 28.2106C25.406 22.4208 32.1871 15.9406 37.7675 11.932C39.4004 10.759 41.5997 10.759 43.2326 11.932C48.813 15.9406 55.5941 22.4208 59.2938 28.2106C61.0285 30.9254 59.2323 34.5082 56.0191 34.7424L50.9919 35.1089C50.7074 35.1296 50.4228 35.1495 50.1382 35.1686C50.374 40.6202 50.2533 46.0826 49.7766 51.5207C49.5486 54.1216 47.3707 56.117 44.7598 56.117H36.2404ZM36.05 32.9485C35.6662 38.9804 35.7379 45.0329 36.2645 51.0545H44.7356C45.2622 45.0329 45.3339 38.9804 44.9501 32.9485C44.9071 32.2723 45.137 31.607 45.5884 31.1017C46.0397 30.5963 46.6749 30.293 47.3517 30.2596C48.443 30.2059 49.5338 30.1393 50.6238 30.0598L54.2749 29.7937C51.0364 25.0238 46.9814 20.8582 42.2931 17.4904L40.5001 16.2024L38.707 17.4904C34.0187 20.8582 29.9637 25.0238 26.7252 29.7937L30.3763 30.0598C31.4664 30.1393 32.5571 30.2059 33.6484 30.2596C34.3252 30.293 34.9604 30.5963 35.4117 31.1017C35.8631 31.607 36.093 32.2723 36.05 32.9485Z" fill="#DAB232"/>
<path d="M19.4063 57.375C19.4063 55.977 18.273 54.8437 16.875 54.8437C15.477 54.8437 14.3438 55.977 14.3438 57.375V64.125C14.3438 67.3869 16.9881 70.0312 20.25 70.0312H60.75C64.0119 70.0312 66.6563 67.3869 66.6563 64.125V57.375C66.6563 55.977 65.523 54.8437 64.125 54.8437C62.727 54.8437 61.5938 55.977 61.5938 57.375V64.125C61.5938 64.591 61.216 64.9687 60.75 64.9687H20.25C19.784 64.9687 19.4063 64.591 19.4063 64.125V57.375Z" fill="#DAB232"/>
</svg>
