<svg width="55" height="33" viewBox="0 0 55 33" fill="none" xmlns="http://www.w3.org/2000/svg">
<path d="M28.7829 8.39493C28.3806 8.42827 28.0349 8.53939 27.7458 8.72273C27.4503 8.91163 27.2115 9.14498 27.0229 9.42833C26.8344 9.71168 26.6961 10.0284 26.6207 10.3895C26.5389 10.7506 26.5201 11.1118 26.5641 11.4896C26.6144 11.9729 26.7715 12.3118 27.0355 12.5063C27.2932 12.7007 27.62 12.7785 28.0097 12.7507C28.2486 12.7285 28.4623 12.6952 28.632 12.6507C28.8017 12.6063 28.9903 12.5452 29.1914 12.4729L29.5434 8.41716C29.4051 8.39493 29.2794 8.38382 29.16 8.38382C29.0469 8.37827 28.9211 8.38382 28.7829 8.39493ZM0.422761 4.95585C9.14701 12.6507 17.8524 20.3567 26.5704 28.0516C27.3058 28.7072 27.6389 28.7017 28.3869 28.0461L53.1014 6.20036C53.7048 5.667 54.5408 5.21142 54.8362 4.56693C55.1379 3.90578 54.9305 3.05018 54.9305 2.27236C54.9368 0.744488 54.0882 0 52.3534 0H2.51583C0.875316 0 0.0204907 0.772268 0.0142052 2.23346C0.0142052 2.84461 0.0393471 3.45576 0.00163423 4.0669C-0.0172222 4.43915 0.127344 4.69472 0.422761 4.95585V4.95585ZM20.4043 9.42833C20.6934 8.42271 21.2026 7.48377 21.9254 6.62817C22.6545 5.767 23.6225 5.03918 24.823 4.43359C26.0235 3.828 27.4881 3.45576 29.2103 3.30575C30.1342 3.22797 31.0142 3.26686 31.8565 3.41131C32.705 3.56132 33.453 3.83356 34.113 4.23358C34.7729 4.6336 35.3198 5.15586 35.7535 5.80589C36.1809 6.46149 36.4512 7.24487 36.5517 8.16714C36.6271 8.83385 36.5706 9.50055 36.3946 10.1728C36.2186 10.8451 35.9357 11.4562 35.5398 12.0063C35.1501 12.5563 34.6535 13.023 34.0438 13.4008C33.4404 13.7786 32.7553 14.0008 31.9822 14.0786C31.0959 14.1564 30.4045 14.0064 29.8954 13.6397C29.5497 13.8341 29.1851 14.0064 28.7954 14.1619C28.4057 14.3175 27.9092 14.4231 27.2995 14.4731C26.9161 14.5064 26.5389 14.4842 26.1932 14.4175C25.8413 14.3453 25.5333 14.2064 25.2504 14.0119C24.9739 13.8119 24.7413 13.5563 24.5527 13.2341C24.3642 12.9119 24.2447 12.523 24.1945 12.0618C24.1127 11.334 24.1819 10.6506 24.3893 10.0228C24.5967 9.39499 24.911 8.8394 25.3384 8.35604C25.7595 7.87824 26.275 7.48933 26.8721 7.18931C27.4692 6.88929 28.1229 6.70595 28.8394 6.64483C29.3863 6.60039 29.9268 6.58927 30.4611 6.61705C30.9954 6.63928 31.5045 6.70595 31.9822 6.81707L31.4102 12.3729C31.5422 12.4452 31.7433 12.473 32.0262 12.4507C32.4787 12.4118 32.8621 12.2618 33.189 11.9951C33.5158 11.7285 33.7735 11.4007 33.9684 11.0006C34.1695 10.6062 34.3015 10.1784 34.3707 9.70612C34.4461 9.23943 34.4524 8.7894 34.4021 8.34493C34.2701 7.11153 33.7421 6.20592 32.8244 5.62255C31.9005 5.03918 30.6748 4.81695 29.1286 4.94473C27.9406 5.04474 26.9035 5.31698 26.011 5.75034C25.1184 6.18925 24.3893 6.73928 23.8236 7.40043C23.2579 8.06158 22.8431 8.79496 22.5917 9.61723C22.3465 10.4339 22.2648 11.2618 22.3528 12.1118C22.4345 12.8841 22.6357 13.5341 22.9625 14.0564C23.2831 14.5842 23.6853 15.0009 24.1693 15.3064C24.6596 15.6176 25.2064 15.8287 25.8287 15.9398C26.4447 16.0454 27.0921 16.0732 27.7772 16.0176C28.4057 15.962 28.984 15.8787 29.512 15.7676C30.04 15.6509 30.5114 15.5009 30.9325 15.312C31.0645 15.5398 31.1965 15.7731 31.3222 16.0176C31.4416 16.2621 31.561 16.501 31.6553 16.7454C31.4479 16.8621 31.1965 16.9732 30.9011 17.0732C30.6057 17.1788 30.2851 17.2732 29.9394 17.351C29.5937 17.4344 29.2228 17.501 28.8331 17.5621C28.4434 17.6233 28.0475 17.6677 27.664 17.701C26.7275 17.7788 25.8287 17.7344 24.9676 17.5677C24.1002 17.401 23.3271 17.101 22.6419 16.6676C21.9631 16.2343 21.3974 15.662 20.9511 14.9564C20.5049 14.2453 20.2283 13.3786 20.1152 12.3618C20.0209 11.4229 20.1152 10.4395 20.4043 9.42833ZM42.5166 19.79C42.3721 19.6623 42.2275 19.5456 41.9761 19.3289C41.8315 19.4956 41.7184 19.6734 41.5613 19.8067C37.7962 23.1402 34.0312 26.4682 30.26 29.8017C28.4937 31.3629 26.4572 31.3685 24.7036 29.8184C20.9386 26.4904 17.1673 23.1569 13.4023 19.8234C13.2451 19.6845 13.1257 19.5122 12.9686 19.3289C12.7863 19.4734 12.7235 19.5178 12.6669 19.5678C8.55618 23.2014 4.44547 26.8405 0.322194 30.4684C-0.0486497 30.7962 -0.0235077 31.1351 0.0833455 31.5018C0.372478 32.4908 1.20845 32.9964 2.50954 32.9964H52.4163C52.5797 32.9964 52.7431 33.0075 52.9065 32.9908C53.7048 32.9075 54.3459 32.5852 54.6853 31.9241C55.031 31.2518 55.1128 30.874 54.4025 30.2518C50.4112 26.796 46.4702 23.2847 42.5166 19.79ZM0.0582037 27.1571L10.7435 17.7121C7.17966 14.5342 3.6095 11.3562 0.0582037 8.18937V27.1571V27.1571ZM54.8865 27.096V8.17826L44.1886 17.6344L54.8865 27.096Z" fill="white"/>
</svg>
