<svg width="46" height="34" viewBox="0 0 46 34" fill="none" xmlns="http://www.w3.org/2000/svg">
<path d="M22.9542 8.10439C16.3812 8.10439 11.0338 12.0321 11.0338 16.86C11.0338 21.6878 16.3812 25.6122 22.9542 25.6122C29.5271 25.6122 34.8699 21.6844 34.8699 16.86C34.8745 12.0321 29.5271 8.10439 22.9542 8.10439ZM22.9542 22.2743C18.8879 22.2743 15.5828 19.8467 15.5828 16.86C15.5828 13.8733 18.8879 11.4457 22.9542 11.4457C27.0205 11.4457 30.3255 13.8733 30.3255 16.86C30.3255 19.8467 27.0205 22.2743 22.9542 22.2743ZM32.6975 0H13.2108C5.9277 0 0 4.35393 0 9.70344V24.0165C0 29.366 5.9277 33.72 13.2108 33.72H32.6975C39.9806 33.72 45.9083 29.366 45.9083 24.0165V9.70344C45.9083 4.35393 39.9853 0 32.6975 0ZM41.3639 24.0165C41.3639 27.5249 37.474 30.3787 32.6975 30.3787H13.2108C8.43432 30.3787 4.54906 27.5249 4.54906 24.0165V9.70344C4.54906 6.19506 8.43432 3.34131 13.2108 3.34131H32.6975C37.474 3.34131 41.3593 6.19506 41.3593 9.70344V24.0165H41.3639ZM35.037 5.57453C33.3195 5.57453 31.9177 6.60079 31.9177 7.86572C31.9177 9.12724 33.3149 10.1569 35.037 10.1569C36.7545 10.1569 38.1564 9.13064 38.1564 7.86572C38.1564 6.60079 36.7545 5.57453 35.037 5.57453Z" fill="white"/>
</svg>
