<svg width="38" height="33" viewBox="0 0 38 33" fill="none" xmlns="http://www.w3.org/2000/svg">
<path d="M19 7.93134C13.5594 7.93134 9.13306 11.7752 9.13306 16.5C9.13306 21.2248 13.5594 25.0653 19 25.0653C24.4406 25.0653 28.8631 21.2214 28.8631 16.5C28.8669 11.7752 24.4406 7.93134 19 7.93134ZM19 21.7987C15.6342 21.7987 12.8985 19.423 12.8985 16.5C12.8985 13.577 15.6342 11.2013 19 11.2013C22.3658 11.2013 25.1015 13.577 25.1015 16.5C25.1015 19.423 22.3658 21.7987 19 21.7987ZM27.0649 0H10.9351C4.90657 0 0 4.26097 0 9.49626V23.5037C0 28.739 4.90657 33 10.9351 33H27.0649C33.0934 33 38 28.739 38 23.5037V9.49626C38 4.26097 33.0973 0 27.0649 0ZM34.2384 23.5037C34.2384 26.9372 31.0186 29.73 27.0649 29.73H10.9351C6.98139 29.73 3.76542 26.9372 3.76542 23.5037V9.49626C3.76542 6.06279 6.98139 3.26997 10.9351 3.26997H27.0649C31.0186 3.26997 34.2346 6.06279 34.2346 9.49626V23.5037H34.2384ZM29.0014 5.45551C27.5798 5.45551 26.4194 6.45986 26.4194 7.69778C26.4194 8.93236 27.5759 9.94004 29.0014 9.94004C30.4231 9.94004 31.5834 8.93569 31.5834 7.69778C31.5834 6.45986 30.4231 5.45551 29.0014 5.45551Z" fill="white"/>
</svg>
