<svg width="46" height="31" viewBox="0 0 46 31" fill="none" xmlns="http://www.w3.org/2000/svg">
<path d="M42.5138 0.450195H3.39456C1.52042 0.450195 0 1.42818 0 2.63587V28.7248C0 29.9325 1.52042 30.907 3.39456 30.907H42.5138C44.3879 30.907 45.9083 29.9325 45.9083 28.7248V2.63239C45.903 1.42818 44.3826 0.450195 42.5138 0.450195ZM13.9161 25.9405H6.98444V12.193H13.9161V25.9405ZM10.4529 10.3171H10.4054C8.07725 10.3171 6.57794 9.26251 6.57794 7.93997C6.57794 6.58958 8.13004 5.56287 10.4951 5.56287C12.8708 5.56287 14.3279 6.58958 14.3701 7.93997C14.3701 9.26251 12.8708 10.3171 10.4529 10.3171ZM38.9186 25.9405H31.9817V18.5864C31.9817 16.7384 30.9839 15.4785 28.4763 15.4785C26.5546 15.4785 25.4143 16.3277 24.9128 17.149C24.7333 17.4449 24.691 17.8556 24.691 18.2628V25.9474H17.7541C17.7541 25.9474 17.8439 13.4877 17.7541 12.1965H24.691V14.142C25.6096 13.2058 27.262 11.8728 30.9364 11.8728C35.4977 11.8728 38.9186 13.8392 38.9186 18.0644V25.9405Z" fill="white"/>
</svg>
