<svg height="194pt" preserveAspectRatio="xMidYMid meet" viewBox="0 0 186 194" width="186pt" xmlns="http://www.w3.org/2000/svg"><g transform="matrix(.1 0 0 -.1 0 194)"><path d="m850 1929c-69-12-105-23-202-61l-78-30-82 43c-68 35-94 43-153 47-66 4-73 3-104-24-65-55-88-161-56-259l13-40 1 40c2 73 18 112 52 124 17 6 44 22 61 36 25 21 40 25 94 25 56 0 74-5 148-44l84-44 86 35c122 49 228 67 351 60 186-11 359-77 487-186 35-30 42-32 65-22l26 12-44 45c-99 101-249 187-397 225-89 23-270 33-352 18z"/><path d="m333 1643c-72-89-95-124-132-206-21-45-41-90-44-99s-19-25-34-34c-49-31-73-57-73-80 0-51 61-72 96-33 10 12 31 27 45 35 19 9 44 49 89 139 51 104 73 137 131 196 38 38 69 73 69 77 0 10-76 52-94 52-8 0-32-21-53-47z"/><path d="m520 1499c-79-86-113-152-165-324-2-5-76-52-164-104l-162-93 3-36c2-27 9-40 27-48 29-15 43-10 56 18 6 11 75 58 159 107l149 86 17 61c33 122 130 272 191 298l30 12-36 37c-20 20-41 37-47 37s-32-23-58-51z"/><path d="m900 1485c0-3 23-33 50-67 28-35 74-97 102-138 54-79 77-109 60-75-15 30-119 183-160 238-32 41-52 58-52 42z"/><path d="m1655 1252-150-87 3-65c7-124-41-273-114-359-25-29-34-47-29-61 3-11 11-20 16-20 14 0 69 79 102 150 28 57 32 78 37 180l5 114 82 48c46 26 112 63 147 83l64 36 15-63c10-39 16-52 16-35 1 36-28 167-38 167-4 0-74-39-156-88z"/><path d="m1081 958c48-95 112-261 145-373 25-89 28-116 29-240 0-127-2-144-23-183-15-27-35-48-54-57-30-12-31-13-8-20 30-9 69 19 95 71 25 49 32 190 15 289-18 106-85 295-155 443-35 72-66 132-69 132-4 0 8-28 25-62z"/><path d="m240 835c-118-69-221-133-227-142-21-27-15-61 12-79 27-17 55-13 55 9 0 24 41 53 225 158 99 56 183 105 188 109 10 9-12 70-26 70-7 0-109-57-227-125z"/><path d="m391 655c-90-52-166-95-167-95s-26-14-54-32c-61-38-73-68-39-104 29-31 59-32 59-1 0 12 4 27 8 34 7 12 195 125 335 202 42 23 77 46 77 50 0 11-34 41-46 41-5 0-83-43-173-95z"/><path d="m577 497c-87-51-169-102-183-114-29-26-31-56-4-83 31-31 50-26 50 15 0 37-2 36 273 193l88 50 57-21c60-22 227-30 285-14 33 9 34 44 2 39-11-2-67-6-125-9-82-4-119-2-170 12-110 30-102 32-273-68z"/><path d="m735 319c-74-39-105-68-105-98 0-15 5-32 12-39 15-15 52-16 43-1-16 25 7 59 66 95l61 37 73-13c84-14 290-9 306 7 20 20 1 32-34 22-83-24-275-21-367 6-9 3-33-5-55-16z"/><path d="m1055 109c28-28 68-59 90-70 32-16 35-16 15-2-14 10-50 41-79 70-70 68-91 69-26 2z"/></g></svg>