<svg width="52" height="24" viewBox="0 0 52 24" fill="none" xmlns="http://www.w3.org/2000/svg">
<path d="M26.8851 5.97942C26.5094 6.00286 26.1865 6.081 25.9164 6.20992C25.6404 6.34276 25.4173 6.50684 25.2412 6.70609C25.0651 6.90534 24.9359 7.12803 24.8655 7.38198C24.7891 7.63592 24.7715 7.88987 24.8126 8.15553C24.8596 8.49543 25.0064 8.73375 25.253 8.87049C25.4937 9.00723 25.799 9.06192 26.163 9.04239C26.3861 9.02676 26.5857 9.00332 26.7442 8.97206C26.9027 8.94081 27.0789 8.89783 27.2667 8.84705L27.5955 5.99505C27.4663 5.97942 27.3489 5.97161 27.2374 5.97161C27.1317 5.9677 27.0143 5.97161 26.8851 5.97942ZM0.394887 3.56108C8.54392 8.97206 16.6753 14.3909 24.8185 19.8018C25.5054 20.2629 25.8166 20.2589 26.5152 19.7979L49.6002 4.43621C50.1639 4.06116 50.9447 3.7408 51.2207 3.2876C51.5025 2.82269 51.3087 2.22103 51.3087 1.67407C51.3146 0.59969 50.522 0.0761719 48.9016 0.0761719H2.34995C0.817604 0.0761719 0.0191397 0.619224 0.0132686 1.64673C0.0132686 2.07648 0.0367528 2.50623 0.00152648 2.93599C-0.0160867 3.19774 0.118948 3.37746 0.394887 3.56108ZM19.059 6.70609C19.3291 5.99895 19.8046 5.3387 20.4798 4.73704C21.1608 4.13148 22.065 3.61968 23.1863 3.19384C24.3077 2.76799 25.6757 2.50623 27.2843 2.40075C28.1474 2.34605 28.9693 2.3734 29.7561 2.47498C30.5486 2.58046 31.2473 2.7719 31.8638 3.05319C32.4802 3.33448 32.991 3.70173 33.3961 4.15883C33.7953 4.61984 34.0478 5.1707 34.1417 5.81924C34.2122 6.28806 34.1594 6.75688 33.995 7.22961C33.8306 7.70234 33.5664 8.13209 33.1965 8.51887C32.8325 8.90565 32.3687 9.23382 31.7992 9.49949C31.2356 9.76515 30.5956 9.92143 29.8735 9.97612C29.0457 10.0308 28.3998 9.92534 27.9243 9.66748C27.6014 9.80422 27.2609 9.92533 26.8969 10.0347C26.5328 10.1441 26.069 10.2183 25.4995 10.2535C25.1414 10.277 24.7891 10.2613 24.4662 10.2144C24.1375 10.1637 23.8498 10.066 23.5856 9.92924C23.3272 9.7886 23.11 9.60888 22.9339 9.38228C22.7578 9.15569 22.6462 8.88221 22.5992 8.55794C22.5229 8.04614 22.5875 7.5656 22.7812 7.12413C22.975 6.68265 23.2685 6.29197 23.6678 5.95207C24.0611 5.61608 24.5426 5.3426 25.1003 5.13163C25.6581 4.92066 26.2686 4.79174 26.9379 4.74876C27.4487 4.71751 27.9536 4.70969 28.4527 4.72923C28.9517 4.74486 29.4273 4.79174 29.8735 4.86987L29.3392 8.77672C29.4625 8.82751 29.6504 8.84705 29.9146 8.83142C30.3373 8.80407 30.6954 8.69858 31.0007 8.51106C31.306 8.32353 31.5467 8.09302 31.7287 7.81173C31.9166 7.53434 32.0399 7.23352 32.1045 6.90144C32.1749 6.57326 32.1808 6.25681 32.1338 5.94426C32.0105 5.07694 31.5174 4.44012 30.6602 4.0299C29.7972 3.61968 28.6523 3.46341 27.208 3.55327C26.0984 3.62359 25.1297 3.81503 24.296 4.11976C23.4623 4.4284 22.7812 4.81518 22.2528 5.28009C21.7244 5.74501 21.337 6.26071 21.1021 6.83893C20.8731 7.41323 20.7968 7.99535 20.879 8.5931C20.9553 9.13615 21.1432 9.59325 21.4485 9.9605C21.7479 10.3316 22.1237 10.6247 22.5758 10.8395C23.0337 11.0583 23.5445 11.2068 24.1257 11.2849C24.7011 11.3591 25.3058 11.3787 25.9457 11.3396C26.5328 11.3005 27.073 11.2419 27.5662 11.1638C28.0593 11.0818 28.4996 10.9763 28.893 10.8434C29.0163 11.0036 29.1396 11.1677 29.257 11.3396C29.3686 11.5115 29.4801 11.6795 29.5682 11.8514C29.3744 11.9335 29.1396 12.0116 28.8637 12.0819C28.5877 12.1561 28.2883 12.2226 27.9654 12.2773C27.6425 12.3359 27.2961 12.3827 26.9321 12.4257C26.5681 12.4687 26.1982 12.4999 25.8401 12.5234C24.9653 12.5781 24.1257 12.5468 23.3214 12.4296C22.5112 12.3124 21.789 12.1014 21.1491 11.7967C20.515 11.492 19.9866 11.0896 19.5698 10.5934C19.1529 10.0933 18.8946 9.48386 18.7889 8.76891C18.7009 8.10865 18.7889 7.41714 19.059 6.70609ZM39.7134 13.9924C39.5783 13.9025 39.4433 13.8205 39.2085 13.6681C39.0734 13.7853 38.9678 13.9103 38.821 14.0041C35.3042 16.3482 31.7874 18.6884 28.2648 21.0325C26.615 22.1303 24.7128 22.1342 23.0748 21.0442C19.558 18.704 16.0354 16.3599 12.5186 14.0158C12.3719 13.9181 12.2603 13.797 12.1135 13.6681C11.9433 13.7697 11.8846 13.8009 11.8317 13.8361C7.99204 16.3912 4.15237 18.9502 0.30095 21.5013C-0.0454421 21.7318 -0.0219578 21.9701 0.0778502 22.228C0.347919 22.9234 1.12877 23.2789 2.34408 23.2789H48.9603C49.1129 23.2789 49.2656 23.2868 49.4182 23.275C50.1639 23.2164 50.7627 22.9898 51.0797 22.5249C51.4027 22.0522 51.479 21.7865 50.8155 21.349C47.0874 18.9189 43.4063 16.4498 39.7134 13.9924ZM0.0543661 19.1728L10.0352 12.5312C6.70628 10.2965 3.37151 8.06177 0.0543661 5.83487V19.1728ZM51.2676 19.1299V5.82705L41.2751 12.4765L51.2676 19.1299Z" fill="white"/>
</svg>
